# xmcd CD database file
# Generated: Thu Dec 26 20:02:37 2002 by KSCD
# 
# Track frame offsets:
#       183
#       14440
#       27945
#       39703
#       54230
#       66905
#       77558
#       91570
#       99490
#       113580
#       123665
#       134790
#       148745
#       160813
#       170658
#       182425
#
# Disc length: 2599 seconds
#
# Revision: 2
# Processed by: cddbd v1.4PL0 Copyright (c) Steve Scherf et al.
# Submitted via: Kscd 1.3.3
#
DISCID=d30a2510
DTITLE=LOWELL FULSON - THE WORLD OF LOWELL FULSON
DYEAR=1900
DGENRE=
TTITLE0=RECONSIDER BABY
TTITLE1=LOVIN' YOU
TTITLE2=THAT'S ALLRIGHT
TTITLE3=I WANT TO MAKE LOVE TO YOU
TTITLE4=LONELY HOURS
TTITLE5=COMIN' HOME SUNDAY
TTITLE6=HAVE YOU CHANGED YOUR MIND
TTITLE7=ROCK THIS MORNING
TTITLE8=WOORY WORRY
TTITLE9=K.C. BOUND
TTITLE10=SO MANY TEARS
TTITLE11=SOMEDAY BABY
TTITLE12=SWINGIN' PARTY
TTITLE13=LOVE N THINGS
TTITLE14=IT TOOK A LONG TIME
TTITLE15=I'M GLAD YOU RECONSIDERED
EXTD=
EXTT0=
EXTT1=
EXTT2=
EXTT3=
EXTT4=
EXTT5=
EXTT6=
EXTT7=
EXTT8=
EXTT9=
EXTT10=
EXTT11=
EXTT12=
EXTT13=
EXTT14=
EXTT15=
PLAYORDER=
